# xmcd
#
# Track frame offsets:
#	150
#	19765
#	37842
#	54694
#	70493
#	88533
#	101051
#	115961
#	126390
#	139745
#	150190
#
# Disc length: 2119 seconds
#
# Revision: 0
# Processed by: cddbd v1.5.2PL0 Copyright (c) Steve Scherf et al.
# Submitted via: EasyCDDAExtractor 12.0.0.1
#
DISCID=9008450b
DTITLE=Brad Wilson - Rockin' The Blues
DYEAR=2008
DGENRE=Blues
TTITLE0=All Kinds Of A Fool
TTITLE1=Last Call
TTITLE2=Something Goin' On
TTITLE3=I'm Still Breathin'
TTITLE4=Ballad Of John Lee
TTITLE5=I'm Tore Down
TTITLE6=Third Degree
TTITLE7=Further On Up The Road
TTITLE8=Standing Around Crying
TTITLE9=Key To The Highway
TTITLE10=I'm Still Breathin' (Instrumental)
EXTD=
EXTT0=
EXTT1=
EXTT2=
EXTT3=
EXTT4=
EXTT5=
EXTT6=
EXTT7=
EXTT8=
EXTT9=
EXTT10=
PLAYORDER=
